:FULLY-SPECIFIED
:FORCE-ALL-JOINTS-BE-3DOF
:DEGREES
1
root 0.0917792 17.1113 -36.2281 4.68854 2.37172 2.1196
lfemur -7.00586 -1.73986 -27.8547
ltibia 41.1896 0 0
lfoot -18.4606 0.563554 0
ltoes -11.2184 0 0
rfemur -36.1767 -4.01455 16.7326
rtibia 108.236 0 0
rfoot 12.8687 -5.27186 0
rtoes 8.52629 0 0
lowerback 19.257 -1.22373 -5.06989
upperback 1.70725 -2.88959 -2.17631
thorax -8.80689 -1.22956 1.27549
lowerneck -3.02729 -0.130267 -1.32286
upperneck -12.924 0.233441 4.10486
head -3.67612 0.0262048 1.58301
lclavicle -9.54166e-15 -7.15625e-15 0
lhumerus -10.0203 -20.6355 82.8192
lradius 113.865 0 0
lwrist 27.5011 0 0
lhand -37.1915 8.38258 0
lfingers 7.12502 0 0
lthumb -10.2594 38.1124 0
rclavicle -9.54166e-15 -7.15625e-15 0
rhumerus -54.6221 8.39899 -88.3047
rradius 81.0784 0 0
rwrist -0.792659 0 0
rhand -48.8742 40.2847 0
rfingers 7.12502 0 0
rthumb -21.5082 11.4588 0
2
root 0.102778 17.1157 -35.6909 4.67942 2.07972 1.93995
lfemur -7.47135 -1.32479 -27.3887
ltibia 42.9579 0 0
lfoot -17.6258 0.437577 0
ltoes -11.1628 0 0
rfemur -35.6514 -3.82883 17.1144
rtibia 106.604 0 0
rfoot 12.1536 -5.29946 0
rtoes 8.10305 0 0
lowerback 19.2375 -1.21313 -4.84634
upperback 1.72092 -2.82016 -2.06873
thorax -8.78474 -1.20249 1.24665
lowerneck -2.9842 -0.0548278 -1.26795
upperneck -13.0171 0.312204 3.90592
head -3.70149 0.07093 1.50704
lclavicle -9.6653e-15 -6.72959e-15 0
lhumerus -10.9507 -20.3982 83.1528
lradius 113.623 0 0
lwrist 27.6627 0 0
lhand -37.2501 8.52208 0
lfingers 7.12502 0 0
lthumb -10.3159 38.2488 0
rclavicle -9.6653e-15 -6.72959e-15 0
rhumerus -54.0355 8.50533 -88.3032
rradius 81.5751 0 0
rwrist -0.8424 0 0
rhand -48.7703 40.2315 0
rfingers 7.12502 0 0
rthumb -21.4083 11.3955 0
3
root 0.113777 17.1201 -35.1536 4.67029 1.78773 1.7603
lfemur -7.93683 -0.909711 -26.9226
ltibia 44.7262 0 0
lfoot -16.791 0.311601 0
ltoes -11.1071 0 0
rfemur -35.126 -3.64312 17.4962
rtibia 104.973 0 0
rfoot 11.4385 -5.32706 0
rtoes 7.67981 0 0
lowerback 19.2179 -1.20252 -4.62279
upperback 1.73459 -2.75072 -1.96115
thorax -8.7626 -1.17542 1.21781
lowerneck -2.94111 0.0206114 -1.21305
upperneck -13.1101 0.390966 3.70698
head -3.72687 0.115655 1.43107
lclavicle -9.78893e-15 -6.30293e-15 0
lhumerus -11.8811 -20.1609 83.4865
lradius 113.38 0 0
lwrist 27.8244 0 0
lhand -37.3087 8.66159 0
lfingers 7.12502 0 0
lthumb -10.3724 38.3851 0
rclavicle -9.78893e-15 -6.30293e-15 0
rhumerus -53.4488 8.61167 -88.3017
rradius 82.0718 0 0
rwrist -0.892142 0 0
rhand -48.6663 40.1783 0
rfingers 7.12502 0 0
rthumb -21.3083 11.3322 0
4
root 0.124776 17.1244 -34.6164 4.66117 1.49573 1.58065
lfemur -8.40232 -0.494636 -26.4566
ltibia 46.4945 0 0
lfoot -15.9563 0.185624 0
ltoes -11.0515 0 0
rfemur -34.6007 -3.4574 17.878
rtibia 103.341 0 0
rfoot 10.7234 -5.35467 0
rtoes 7.25658 0 0
lowerback 19.1984 -1.19192 -4.39925
upperback 1.74826 -2.68129 -1.85357
thorax -8.74045 -1.14835 1.18896
lowerneck -2.89801 0.0960506 -1.15814
upperneck -13.2032 0.469729 3.50804
head -3.75224 0.160381 1.35511
lclavicle -9.91257e-15 -5.87627e-15 0
lhumerus -12.8116 -19.9236 83.8201
lradius 113.138 0 0
lwrist 27.986 0 0
lhand -37.3673 8.80109 0
lfingers 7.12502 0 0
lthumb -10.429 38.5215 0
rclavicle -9.91257e-15 -5.87627e-15 0
rhumerus -52.8622 8.71801 -88.3002
rradius 82.5685 0 0
rwrist -0.941883 0 0
rhand -48.5624 40.1251 0
rfingers 7.12502 0 0
rthumb -21.2084 11.2689 0
5
root 0.135775 17.1288 -34.0791 4.65204 1.20374 1.401
lfemur -8.86781 -0.0795615 -25.9906
ltibia 48.2628 0 0
lfoot -15.1215 0.0596473 0
ltoes -10.9959 0 0
rfemur -34.0754 -3.27168 18.2598
rtibia 101.71 0 0
rfoot 10.0082 -5.38227 0
rtoes 6.83334 0 0
lowerback 19.1788 -1.18131 -4.1757
upperback 1.76193 -2.61185 -1.74599
thorax -8.7183 -1.12128 1.16012
lowerneck -2.85492 0.17149 -1.10324
upperneck -13.2963 0.548492 3.3091
head -3.77761 0.205106 1.27914
lclavicle -1.00362e-14 -5.44961e-15 0
lhumerus -13.742 -19.6863 84.1538
lradius 112.896 0 0
lwrist 28.1476 0 0
lhand -37.4259 8.94059 0
lfingers 7.12502 0 0
lthumb -10.4855 38.6579 0
rclavicle -1.00362e-14 -5.44961e-15 0
rhumerus -52.2756 8.82435 -88.2988
rradius 83.0652 0 0
rwrist -0.991625 0 0
rhand -48.4585 40.0719 0
rfingers 7.12502 0 0
rthumb -21.1085 11.2056 0
6
root 0.146774 17.1332 -33.5419 4.64292 0.91174 1.22135
lfemur -9.33329 0.335513 -25.5246
ltibia 50.0311 0 0
lfoot -14.2867 -0.0663294 0
ltoes -10.9403 0 0
rfemur -33.5501 -3.08597 18.6416
rtibia 100.078 0 0
rfoot 9.29313 -5.40987 0
rtoes 6.4101 0 0
lowerback 19.1593 -1.17071 -3.95215
upperback 1.7756 -2.54242 -1.6384
thorax -8.69615 -1.09422 1.13128
lowerneck -2.81183 0.246929 -1.04833
upperneck -13.3894 0.627254 3.11016
head -3.80298 0.249831 1.20317
lclavicle -1.01598e-14 -5.02295e-15 0
lhumerus -14.6724 -19.449 84.4874
lradius 112.654 0 0
lwrist 28.3093 0 0
lhand -37.4845 9.08009 0
lfingers 7.12502 0 0
lthumb -10.542 38.7943 0
rclavicle -1.01598e-14 -5.02295e-15 0
rhumerus -51.6889 8.93069 -88.2973
rradius 83.5619 0 0
rwrist -1.04137 0 0
rhand -48.3545 40.0187 0
rfingers 7.12502 0 0
rthumb -21.0086 11.1423 0
7
root 0.157773 17.1376 -33.0046 4.63379 0.619743 1.0417
lfemur -9.79878 0.750588 -25.0585
ltibia 51.7994 0 0
lfoot -13.4519 -0.192306 0
ltoes -10.8846 0 0
rfemur -33.0247 -2.90025 19.0234
rtibia 98.4464 0 0
rfoot 8.57801 -5.43747 0
rtoes 5.98686 0 0
lowerback 19.1398 -1.1601 -3.7286
upperback 1.78928 -2.47298 -1.53082
thorax -8.67401 -1.06715 1.10244
lowerneck -2.76874 0.322368 -0.993424
upperneck -13.4824 0.706017 2.91122
head -3.82836 0.294556 1.1272
lclavicle -1.02835e-14 -4.59629e-15 0
lhumerus -15.6028 -19.2116 84.8211
lradius 112.411 0 0
lwrist 28.4709 0 0
lhand -37.5431 9.2196 0
lfingers 7.12502 0 0
lthumb -10.5985 38.9306 0
rclavicle -1.02835e-14 -4.59629e-15 0
rhumerus -51.1023 9.03703 -88.2958
rradius 84.0586 0 0
rwrist -1.09111 0 0
rhand -48.2506 39.9655 0
rfingers 7.12502 0 0
rthumb -20.9086 11.079 0
8
root 0.168772 17.1419 -32.4674 4.62467 0.327747 0.86205
lfemur -10.2643 1.16566 -24.5925
ltibia 53.5677 0 0
lfoot -12.6172 -0.318283 0
ltoes -10.829 0 0
rfemur -32.4994 -2.71453 19.4053
rtibia 96.8148 0 0
rfoot 7.8629 -5.46507 0
rtoes 5.56362 0 0
lowerback 19.1202 -1.1495 -3.50505
upperback 1.80295 -2.40355 -1.42324
thorax -8.65186 -1.04008 1.0736
lowerneck -2.72564 0.397807 -0.938519
upperneck -13.5755 0.78478 2.71228
head -3.85373 0.339282 1.05124
lclavicle -1.04071e-14 -4.16963e-15 0
lhumerus -16.5333 -18.9743 85.1547
lradius 112.169 0 0
lwrist 28.6325 0 0
lhand -37.6017 9.3591 0
lfingers 7.12502 0 0
lthumb -10.655 39.067 0
rclavicle -1.04071e-14 -4.16963e-15 0
rhumerus -50.5157 9.14336 -88.2943
rradius 84.5553 0 0
rwrist -1.14085 0 0
rhand -48.1467 39.9123 0
rfingers 7.12502 0 0
rthumb -20.8087 11.0156 0
9
root 0.179771 17.1463 -31.9301 4.61554 0.0357512 0.6824
lfemur -10.7298 1.58074 -24.1265
ltibia 55.336 0 0
lfoot -11.7824 -0.444259 0
ltoes -10.7734 0 0
rfemur -31.9741 -2.52882 19.7871
rtibia 95.1832 0 0
rfoot 7.14778 -5.49268 0
rtoes 5.14038 0 0
lowerback 19.1007 -1.13889 -3.2815
upperback 1.81662 -2.33411 -1.31566
thorax -8.62971 -1.01301 1.04476
lowerneck -2.68255 0.473247 -0.883613
upperneck -13.6686 0.863542 2.51334
head -3.8791 0.384007 0.97527
lclavicle -1.05307e-14 -3.74297e-15 0
lhumerus -17.4637 -18.737 85.4884
lradius 111.927 0 0
lwrist 28.7942 0 0
lhand -37.6603 9.4986 0
lfingers 7.12502 0 0
lthumb -10.7115 39.2034 0
rclavicle -1.05307e-14 -3.74297e-15 0
rhumerus -49.929 9.2497 -88.2928
rradius 85.052 0 0
rwrist -1.19059 0 0
rhand -48.0427 39.8591 0
rfingers 7.12502 0 0
rthumb -20.7088 10.9523 0
10
root 0.19077 17.1507 -31.3929 4.60642 -0.256245 0.50275
lfemur -11.1952 1.99581 -23.6604
ltibia 57.1043 0 0
lfoot -10.9476 -0.570236 0
ltoes -10.7177 0 0
rfemur -31.4488 -2.3431 20.1689
rtibia 93.5516 0 0
rfoot 6.43267 -5.52028 0
rtoes 4.71715 0 0
lowerback 19.0811 -1.12829 -3.05796
upperback 1.83029 -2.26468 -1.20808
thorax -8.60756 -0.985939 1.01591
lowerneck -2.63946 0.548686 -0.828707
upperneck -13.7617 0.942305 2.3144
head -3.90448 0.428732 0.899302
lclavicle -1.06544e-14 -3.31631e-15 0
lhumerus -18.3941 -18.4997 85.822
lradius 111.684 0 0
lwrist 28.9558 0 0
lhand -37.7189 9.63811 0
lfingers 7.12502 0 0
lthumb -10.7681 39.3397 0
rclavicle -1.06544e-14 -3.31631e-15 0
rhumerus -49.3424 9.35604 -88.2913
rradius 85.5487 0 0
rwrist -1.24033 0 0
rhand -47.9388 39.8059 0
rfingers 7.12502 0 0
rthumb -20.6089 10.889 0
11
root 0.201769 17.1551 -30.8556 4.5973 -0.548241 0.3231
lfemur -11.6607 2.41089 -23.1944
ltibia 58.8726 0 0
lfoot -10.1128 -0.696213 0
ltoes -10.6621 0 0
rfemur -30.9234 -2.15738 20.5507
rtibia 91.92 0 0
rfoot 5.71755 -5.54788 0
rtoes 4.29391 0 0
lowerback 19.0616 -1.11768 -2.83441
upperback 1.84396 -2.19524 -1.1005
thorax -8.58542 -0.95887 0.987073
lowerneck -2.59637 0.624125 -0.773801
upperneck -13.8547 1.02107 2.11546
head -3.92985 0.473457 0.823334
lclavicle -1.0778e-14 -2.88965e-15 0
lhumerus -19.3245 -18.2624 86.1556
lradius 111.442 0 0
lwrist 29.1174 0 0
lhand -37.7775 9.77761 0
lfingers 7.12502 0 0
lthumb -10.8246 39.4761 0
rclavicle -1.0778e-14 -2.88965e-15 0
rhumerus -48.7558 9.46238 -88.2898
rradius 86.0454 0 0
rwrist -1.29007 0 0
rhand -47.8349 39.7527 0
rfingers 7.12502 0 0
rthumb -20.5089 10.8257 0
12
root 0.212768 17.1595 -30.3184 4.58817 -0.840237 0.14345
lfemur -12.1262 2.82596 -22.7284
ltibia 60.6409 0 0
lfoot -9.27807 -0.82219 0
ltoes -10.6065 0 0
rfemur -30.3981 -1.97167 20.9325
rtibia 90.2883 0 0
rfoot 5.00244 -5.57548 0
rtoes 3.87067 0 0
lowerback 19.0421 -1.10708 -2.61086
upperback 1.85763 -2.12581 -0.992917
thorax -8.56327 -0.931801 0.958232
lowerneck -2.55327 0.699564 -0.718895
upperneck -13.9478 1.09983 1.91652
head -3.95522 0.518183 0.747367
lclavicle -1.09016e-14 -2.46299e-15 0
lhumerus -20.2549 -18.0251 86.4893
lradius 111.2 0 0
lwrist 29.279 0 0
lhand -37.8361 9.91711 0
lfingers 7.12502 0 0
lthumb -10.8811 39.6125 0
rclavicle -1.09016e-14 -2.46299e-15 0
rhumerus -48.1692 9.56872 -88.2884
rradius 86.5421 0 0
rwrist -1.33982 0 0
rhand -47.731 39.6995 0
rfingers 7.12502 0 0
rthumb -20.409 10.7624 0
13
root 0.223767 17.1638 -29.7811 4.57905 -1.13223 -0.0362
lfemur -12.5917 3.24104 -22.2624
ltibia 62.4092 0 0
lfoot -8.44329 -0.948166 0
ltoes -10.5508 0 0
rfemur -29.8728 -1.78595 21.3143
rtibia 88.6567 0 0
rfoot 4.28732 -5.60308 0
rtoes 3.44743 0 0
lowerback 19.0225 -1.09647 -2.38731
upperback 1.8713 -2.05637 -0.885335
thorax -8.54112 -0.904732 0.92939
lowerneck -2.51018 0.775003 -0.663989
upperneck -14.0409 1.17859 1.71758
head -3.9806 0.562908 0.671399
lclavicle -1.10253e-14 -2.03633e-15 0
lhumerus -21.1854 -17.7878 86.8229
lradius 110.957 0 0
lwrist 29.4407 0 0
lhand -37.8947 10.0566 0
lfingers 7.12502 0 0
lthumb -10.9376 39.7488 0
rclavicle -1.10253e-14 -2.03633e-15 0
rhumerus -47.5825 9.67506 -88.2869
rradius 87.0388 0 0
rwrist -1.38956 0 0
rhand -47.627 39.6463 0
rfingers 7.12502 0 0
rthumb -20.3091 10.6991 0
14
root 0.234766 17.1682 -29.2439 4.56992 -1.42423 -0.21585
lfemur -13.0572 3.65611 -21.7963
ltibia 64.1775 0 0
lfoot -7.60852 -1.07414 0
ltoes -10.4952 0 0
rfemur -29.3475 -1.60023 21.6961
rtibia 87.0251 0 0
rfoot 3.57221 -5.63069 0
rtoes 3.02419 0 0
lowerback 19.003 -1.08587 -2.16376
upperback 1.88497 -1.98694 -0.777754
thorax -8.51897 -0.877663 0.900548
lowerneck -2.46709 0.850443 -0.609083
upperneck -14.134 1.25736 1.51864
head -4.00597 0.607633 0.595432
lclavicle -1.11489e-14 -1.60967e-15 0
lhumerus -22.1158 -17.5505 87.1566
lradius 110.715 0 0
lwrist 29.6023 0 0
lhand -37.9533 10.1961 0
lfingers 7.12502 0 0
lthumb -10.9941 39.8852 0
rclavicle -1.11489e-14 -1.60967e-15 0
rhumerus -46.9959 9.7814 -88.2854
rradius 87.5355 0 0
rwrist -1.4393 0 0
rhand -47.5231 39.5931 0
rfingers 7.12502 0 0
rthumb -20.2092 10.6358 0
